<?xml version="1.0" encoding="UTF-8"?>
<svg id="a" data-name="Layer 2" xmlns="http://www.w3.org/2000/svg" xmlns:xlink="http://www.w3.org/1999/xlink" viewBox="0 0 1700.8 1754.78">
  <defs>
    <style>
      .f {
        fill: url(#c);
      }

      .g {
        fill: url(#d);
      }

      .h {
        fill: url(#e);
      }

      .i {
        fill: url(#b);
      }
    </style>
    <linearGradient id="b" x1="907.65" y1="1681.87" x2="942.95" y2="296.42" gradientUnits="userSpaceOnUse">
      <stop offset="0" stop-color="#555ca9"/>
      <stop offset="1" stop-color="#a7d7f4"/>
    </linearGradient>
    <linearGradient id="c" x1="1326.05" y1="1692.53" x2="1361.35" y2="307.08" gradientUnits="userSpaceOnUse">
      <stop offset="0" stop-color="#555ca9"/>
      <stop offset="1" stop-color="#a7d7f4"/>
    </linearGradient>
    <linearGradient id="d" x1="842.39" y1="1812.33" x2="877.69" y2="426.87" gradientUnits="userSpaceOnUse">
      <stop offset="0" stop-color="#555ca9"/>
      <stop offset="1" stop-color="#a7d7f4"/>
    </linearGradient>
    <linearGradient id="e" x1="286.68" y1="1666.05" x2="321.98" y2="280.6" xlink:href="#c"/>
  </defs>
  <path class="i" d="M1674.99,345.89c-31.48-92.7-220.35-155.72-283.52-176.3-63.18-20.56-276.93-75.17-332.51-74.93l92.9,202.01s305.33,75.79,346.48,124.83c0,0,13.35,12.23,14.56,96.83-20.32,3.23-127.97,23.92-264.25,117.54-3.14,2.15-6.31,4.35-9.48,6.58-87.3,61.57-140.77,103.62-200.71,158.25-2.23,2.03-4.46,4.08-6.71,6.16-40.31,37.05-84.16,80.23-143.46,139.04-6.55,6.47-13.23,13.12-20.16,19.97h-.01s-.04.06-.06.07c-1.02,1.18-2.13,2.29-3.33,3.31-.68.6-1.38,1.17-2.1,1.7h-.76l-.1.09c-5.72,4.19-12.76,6.67-20.38,6.67-9.95,0-18.92-4.22-25.22-10.96l-.12-.13-.35-.37s-.01-.01-.03-.03c-.55-.46-8.27-7.07-20.64-16.66-37.16-28.87-116.12-84.75-166.88-81.61l175.74-379.27,24.87-53.66c.37-.99.81-1.94,1.32-2.85,3.57-6.37,10.37-10.46,17.8-10.41,7.32.04,14,4.08,17.53,10.33.53.92.98,1.89,1.35,2.89,0,.01.01.03.01.04l25.07,53.66,116.02,248.39c21.93-18.52,150.62-126.38,202.21-155.03l-230.53-496.31-.07-.16-4.1-8.86-.14-.29c-13.65-26.73-35.93-49.31-65.19-63.08-68.18-32.06-149.08-4.45-183.77,61.59l-5.88,12.63L172.42,1266.8l-15.38,33.08s-.01.04-.01.07c-16.92,57.27,12.27,116.45,68.81,142.7,57.99,26.94,126.11,5.24,158.41-48.29h-.04l.03-.07,11.45-24.68v-.04s177.58-383.19,177.58-383.19c0,0,70.05,48.78,89.85,68.58,19.82,19.82,90.86,107.43,129.09,120.51h.95c16.19,7.72,34.3,12.04,53.43,12.04,37.62,0,71.34-16.71,94.14-43.1.04-.03.07-.07.1-.12.01-.03.04-.06.07-.1.85-1.24,5.82-8.53,14.39-20.58,0,0,0-.01.01-.01,22.68-32,70.49-97.58,132.69-172.86,4.32-5.23,8.73-10.5,13.18-15.81,53.64-63.98,116.85-133.59,183.36-194.85,3.36-3.08,6.71-6.16,10.08-9.19,71.52-64.63,146.43-118.92,217.11-145.75-1.31,29.31-3.69,63.75-7.49,104.28,0,0-26.81,200.29-55.65,245.22l108.66,229.18s107.62-218.52,129.52-415.4c22.02-197.89,18.16-314.48-11.77-402.53Z"/>
  <path class="f" d="M1539.72,1287.79s0-.04-.01-.06v-.03s-9.61-20.65-9.61-20.65v-.04s-215.15-463.14-215.15-463.14c-20.23,19.1-125.66,119.72-182.89,196.16l173.71,371.84.03.06v.04s.03.04.03.04l9.16,19.6.03.06h0c.6,1.05,1.21,2.06,1.84,3.07,22.61,36.58,63.71,60.54,110.26,58.9,65.76-2.32,118.74-56.42,119.77-122.19.23-15.34-2.3-30.04-7.14-43.65h-.01Z"/>
  <path class="g" d="M1214.04,1330.1c-268.05,244.26-363.38,234.47-363.38,234.47,0,0-95.34,9.79-363.38-234.47,0,0-46.33,130.16-102.58,157.74,0,0,267.89,257.02,465.96,266.94,198.07-9.92,465.96-266.94,465.96-266.94-56.25-27.58-102.58-157.74-102.58-157.74Z"/>
  <path class="h" d="M196.8,689.09c-22.8-241.94,5.88-268.24,5.88-268.24,41.19-49.08,346.85-124.94,346.85-124.94l93.03-202.24c-55.65-.24-269.65,54.42-332.88,75.02-63.25,20.58-252.32,83.67-283.86,176.49-29.94,88.14-33.8,204.86-11.77,402.99,21.93,197.09,129.67,415.86,129.67,415.86l108.79-229.44c-28.87-44.99-55.7-245.5-55.7-245.5Z"/>
</svg>